<?xml version="1.0" encoding="UTF-8"?>
<svg version="1.1" xmlns="http://www.w3.org/2000/svg" width="500" height="500">
<path d="M0 0 C4.62 0 9.24 0 14 0 C14 3.96 14 7.92 14 12 C17.3 12 20.6 12 24 12 C24 8.7 24 5.4 24 2 C30.6 2 37.2 2 44 2 C44 8.6 44 15.2 44 22 C41.69 22.33 39.38 22.66 37 23 C37.00444122 24.08914703 37.00888245 25.17829407 37.01345825 26.30044556 C37.05402204 36.57043269 37.08399294 46.84040355 37.10362434 57.11045265 C37.11405635 62.39023811 37.12820502 67.66995883 37.15087891 72.94970703 C37.17262791 78.04605113 37.18457301 83.14233301 37.18975449 88.23871994 C37.19344653 90.18194941 37.20065616 92.12517551 37.21146011 94.06837845 C37.22600229 96.79256775 37.22797679 99.51650072 37.22705078 102.24072266 C37.23424133 103.04201599 37.24143188 103.84330933 37.24884033 104.66888428 C37.23212714 109.22019981 36.51770462 112.66460838 35 117 C36.00165075 119.86560644 36.00165075 119.86560644 37.91015625 122.5546875 C38.57080078 123.58207031 39.23144531 124.60945313 39.91210938 125.66796875 C40.62173828 126.72628906 41.33136719 127.78460938 42.0625 128.875 C42.74505859 129.92558594 43.42761719 130.97617187 44.13085938 132.05859375 C46.07436116 135.04773317 48.03637347 138.02406105 50 141 C50.98343648 142.50464409 51.96102655 144.01314525 52.9296875 145.52734375 C53.3097998 146.11765381 53.68991211 146.70796387 54.08154297 147.31616211 C55.68635013 150.25830858 56.06259297 152.68257255 56 156 C54.10037269 160.08419872 51.39290713 161.48272507 47.37535095 163.1111908 C39.75760414 165.76853417 32.19778235 165.56917033 24.24438477 165.53344727 C22.5775171 165.54051769 20.91065585 165.5492674 19.24380493 165.55955505 C14.74575366 165.58193276 10.24805619 165.57913672 5.74997067 165.57023358 C1.98276826 165.56509988 -1.78436905 165.57243549 -5.55156475 165.57970566 C-14.44434725 165.59666772 -23.33695799 165.5931761 -32.22973633 165.57641602 C-41.37814314 165.5594962 -50.52607273 165.57533568 -59.67442745 165.6076389 C-67.55421281 165.63439993 -75.43385021 165.64159332 -83.31367642 165.63312382 C-88.00887688 165.62821383 -92.70379038 165.63030521 -97.39895439 165.65091133 C-101.81597172 165.66937136 -106.23230671 165.66318494 -110.64928818 165.63871193 C-112.2616486 165.63373667 -113.87406196 165.63710751 -115.48637962 165.64986038 C-125.02146334 165.71926072 -133.60995318 165.14146005 -142 160 C-143.92460891 157.11308663 -144.58768083 155.58973853 -144.48144531 152.15869141 C-143.3685746 147.16883196 -140.11038805 142.92817705 -137.375 138.6875 C-136.13260177 136.71237212 -134.89041255 134.73711275 -133.6484375 132.76171875 C-131.83574787 129.89138592 -130.01755066 127.02695179 -128.16503906 124.18212891 C-127.6078418 123.30347168 -127.05064453 122.42481445 -126.4765625 121.51953125 C-125.97463379 120.74327393 -125.47270508 119.9670166 -124.95556641 119.16723633 C-123.78352744 116.50903757 -124.26329409 115.73584086 -125 113 C-125.11016774 110.02721867 -125.16754986 107.07721839 -125.17700195 104.10400391 C-125.18357315 103.20597549 -125.19014435 102.30794708 -125.19691467 101.38270569 C-125.21660911 98.41399041 -125.22830016 95.44532557 -125.23828125 92.4765625 C-125.24235678 91.4616914 -125.2464323 90.4468203 -125.25063133 89.40119553 C-125.27147313 84.0321142 -125.28578444 78.66305831 -125.29516602 73.29394531 C-125.30624153 67.74999044 -125.34066016 62.2064357 -125.38033772 56.66262245 C-125.40647886 52.39721937 -125.41485551 48.13191215 -125.41844749 43.866436 C-125.42331794 41.82270981 -125.43494493 39.77898802 -125.45348549 37.73534012 C-125.47782904 34.87483149 -125.47692088 32.01536562 -125.4699707 29.15478516 C-125.48278076 28.31302231 -125.49559082 27.47125946 -125.50878906 26.60398865 C-125.46176857 21.28842291 -124.61842882 18.15973489 -121 14 C-117.95304026 12.09552856 -115.64167322 11.7518419 -112.07720947 11.75949097 C-110.59227745 11.75536697 -110.59227745 11.75536697 -109.0773468 11.75115967 C-107.9976915 11.75835022 -106.91803619 11.76554077 -105.80566406 11.77294922 C-104.6639122 11.77265717 -103.52216034 11.77236511 -102.34580994 11.77206421 C-98.56900453 11.77345841 -94.79239598 11.78902413 -91.015625 11.8046875 C-88.39817411 11.8084173 -85.78072183 11.81126443 -83.16326904 11.81326294 C-76.9761988 11.81947694 -70.78919931 11.83588666 -64.60216022 11.85596192 C-57.55747144 11.87832342 -50.51277927 11.88931498 -43.46806383 11.89935279 C-28.97867184 11.92025297 -14.48933928 11.95583068 0 12 C0 8.04 0 4.08 0 0 Z M-120 17 C-123.09638912 22.11002562 -123.43088418 26.6655627 -123.37231445 32.45458984 C-123.37596512 33.27020889 -123.37961578 34.08582794 -123.38337708 34.92616272 C-123.39143884 37.60463724 -123.37790667 40.28249827 -123.36328125 42.9609375 C-123.36276202 44.83509318 -123.36328216 46.7092494 -123.36479187 48.58340454 C-123.36470234 52.50555588 -123.35431306 56.42750088 -123.33618164 60.34960938 C-123.31352675 65.35837166 -123.31294683 70.36683194 -123.31969929 75.37563133 C-123.32305358 79.24484911 -123.31638124 83.11399902 -123.30657005 86.98320389 C-123.30274055 88.82904326 -123.30156043 90.67489022 -123.3031559 92.52073288 C-123.30352997 95.10950644 -123.29081053 97.6979044 -123.2746582 100.28662109 C-123.27713562 101.03807907 -123.27961304 101.78953705 -123.28216553 102.56376648 C-123.2355871 107.28063472 -122.55981138 111.50545404 -121.34432602 116.06659317 C-120.81325602 119.04857628 -121.75392523 120.6235847 -123.40234375 123.0859375 C-123.96018555 123.94896484 -124.51802734 124.81199219 -125.09277344 125.70117188 C-125.7015332 126.58353516 -126.31029297 127.46589844 -126.9375 128.375 C-127.84097168 129.75655273 -127.84097168 129.75655273 -128.76269531 131.16601562 C-130.48515776 133.79381548 -132.23838978 136.39835051 -134 139 C-135.43067978 141.15815321 -136.84318251 143.32609676 -138.25 145.5 C-138.77078125 146.2734375 -139.2915625 147.046875 -139.828125 147.84375 C-141.19481872 150.35846644 -141.90900605 152.12459106 -142 155 C-140.5221016 157.28083402 -140.5221016 157.28083402 -138 159 C-135.34323092 159.39097909 -133.10107533 159.53695242 -130.44665527 159.50120544 C-129.68243555 159.50673984 -128.91821582 159.51227424 -128.13083792 159.51797634 C-125.56801505 159.53159837 -123.00616347 159.51660582 -120.44335938 159.50170898 C-118.60691412 159.50549161 -116.77047172 159.51099118 -114.93403625 159.51808167 C-109.94437328 159.53206095 -104.95505417 159.52084913 -99.96541023 159.50437045 C-94.74756718 159.49053598 -89.52974441 159.4969782 -84.31188965 159.50050354 C-75.54885303 159.50320693 -66.78595328 159.48971896 -58.02294922 159.46655273 C-47.88682034 159.43994221 -37.75092034 159.43819543 -27.61476851 159.4499411 C-17.87041255 159.46071447 -8.12613952 159.45453526 1.61820984 159.44038582 C5.76806088 159.4346222 9.91785131 159.43471166 14.06770325 159.43945122 C18.95312609 159.44421806 23.83829781 159.43413144 28.72367287 159.41249657 C30.51837632 159.40692454 32.31310388 159.40646721 34.10780907 159.41144943 C36.55437128 159.41739028 39.00016259 159.40492075 41.44665527 159.38768005 C42.5164965 159.39669512 42.5164965 159.39669512 43.60795069 159.40589231 C46.68175334 159.36639922 48.74315875 159.14471394 51.44446564 157.62269688 C53.20667069 156.08040034 53.20667069 156.08040034 53.44189453 153.64916992 C52.89647426 150.37936032 51.72524768 148.39877694 49.9296875 145.61328125 C48.95515625 144.0809082 48.95515625 144.0809082 47.9609375 142.51757812 C47.27257812 141.45990234 46.58421875 140.40222656 45.875 139.3125 C43.88266848 136.20237784 41.89269576 133.09085022 39.90917969 129.97509766 C38.66016053 128.02873608 37.39063639 126.09534385 36.09863281 124.17724609 C35.24930176 122.87327881 35.24930176 122.87327881 34.3828125 121.54296875 C33.87379395 120.78395264 33.36477539 120.02493652 32.84033203 119.24291992 C32 117 32 117 32.83886719 114.43798828 C33.22204102 113.63345215 33.60521484 112.82891602 34 112 C34.24082874 108.41569055 34.24082874 108.41569055 34.125 104.6875 C34.10695313 103.43324219 34.08890625 102.17898437 34.0703125 100.88671875 C34.04710937 99.93410156 34.02390625 98.98148437 34 98 C32.02 98 30.04 98 28 98 C28 101.63 28 105.26 28 109 C-19.85 109 -67.7 109 -117 109 C-117 79.96 -117 50.92 -117 21 C-90.6 21 -64.2 21 -37 21 C-37 18.69 -37 16.38 -37 14 C-46.78822836 13.93037765 -56.57639745 13.87712667 -66.36482334 13.84456348 C-70.91037834 13.8289319 -75.45576346 13.80773959 -80.0012207 13.77368164 C-84.39083963 13.74099854 -88.78029553 13.72312813 -93.17002678 13.71536827 C-94.84171043 13.7098408 -96.51338553 13.69904699 -98.18499947 13.68280983 C-100.53311314 13.66091615 -102.88055985 13.65803799 -105.22875977 13.65942383 C-105.91424896 13.648638 -106.59973816 13.63785217 -107.30599976 13.6267395 C-112.17448163 13.657671 -115.81394316 14.49472579 -120 17 Z M-16 14 C-16 16.31 -16 18.62 -16 21 C-2.8 21 10.4 21 24 21 C24 18.69 24 16.38 24 14 C10.8 14 -2.4 14 -16 14 Z M28 22 C28 24.97 28 27.94 28 31 C29.98 31 31.96 31 34 31 C34 28.03 34 25.06 34 22 C32.02 22 30.04 22 28 22 Z M-8 27 C-8 31.62 -8 36.24 -8 41 C-3.71 41 0.58 41 5 41 C5 36.38 5 31.76 5 27 C0.71 27 -3.58 27 -8 27 Z M-59 39 C-59 40.32 -59 41.64 -59 43 C-57.68 43 -56.36 43 -55 43 C-55 41.68 -55 40.36 -55 39 C-56.32 39 -57.64 39 -59 39 Z M6 48 C6 48.99 6 49.98 6 51 C6.99 51 7.98 51 9 51 C9 50.01 9 49.02 9 48 C8.01 48 7.02 48 6 48 Z M28 48 C28 56.91 28 65.82 28 75 C29.98 75 31.96 75 34 75 C34 66.09 34 57.18 34 48 C32.02 48 30.04 48 28 48 Z M-34 50 C-34 52.64 -34 55.28 -34 58 C-31.36 58 -28.72 58 -26 58 C-26 55.36 -26 52.72 -26 50 C-28.64 50 -31.28 50 -34 50 Z M4 58 C4 62.62 4 67.24 4 72 C8.62 72 13.24 72 18 72 C18 67.38 18 62.76 18 58 C13.38 58 8.76 58 4 58 Z M-16 69 C-16 71.64 -16 74.28 -16 77 C-13.03 77 -10.06 77 -7 77 C-7 74.36 -7 71.72 -7 69 C-9.97 69 -12.94 69 -16 69 Z M-70 80 C-70 81.98 -70 83.96 -70 86 C-68.02 86 -66.04 86 -64 86 C-64 84.02 -64 82.04 -64 80 C-65.98 80 -67.96 80 -70 80 Z M-22 91 C-22 92.98 -22 94.96 -22 97 C-20.02 97 -18.04 97 -16 97 C-16 95.02 -16 93.04 -16 91 C-17.98 91 -19.96 91 -22 91 Z " fill="#122775" transform="translate(293,141)"/>
<path d="M0 0 C1.09770721 -0.01424011 2.19541443 -0.02848022 3.3263855 -0.04315186 C4.53112015 -0.04336334 5.7358548 -0.04357483 6.97709656 -0.04379272 C8.24561462 -0.05547485 9.51413269 -0.06715698 10.8210907 -0.07919312 C14.3026376 -0.10998919 17.78397897 -0.12111666 21.26564813 -0.12683535 C23.44151855 -0.13118885 25.61733567 -0.13956316 27.7931881 -0.14933395 C35.38625694 -0.18308836 42.97917026 -0.20021605 50.5723114 -0.20297241 C57.64639849 -0.20600597 64.71961085 -0.2464329 71.79344398 -0.30412066 C77.86916569 -0.35192083 83.94459893 -0.3727045 90.02050751 -0.37276304 C93.64835267 -0.37330089 97.27534173 -0.38486516 100.90299416 -0.42393875 C104.95175199 -0.46651337 108.99847 -0.45298467 113.04740906 -0.43441772 C114.84540199 -0.46509842 114.84540199 -0.46509842 116.67971802 -0.49639893 C124.62914488 -0.39608933 124.62914488 -0.39608933 127.75910187 1.93992138 C129.28743127 3.69370502 130.51677345 5.41335181 131.7063446 7.40786743 C132.26434753 8.18396362 132.82235046 8.96005981 133.39726257 9.75967407 C134.80612583 11.98821555 136.20204755 14.22338759 137.5813446 16.47036743 C138.07892273 17.24702759 138.57650085 18.02368774 139.0891571 18.82388306 C141.71856149 23.08944155 143.60529583 26.22706957 142.7063446 31.40786743 C139.92671587 34.18749617 138.26971387 33.6642414 134.37384033 33.67529297 C133.71679625 33.67982408 133.05975217 33.68435519 132.38279766 33.68902361 C130.170996 33.70173059 127.95943859 33.70004325 125.74760437 33.69839478 C124.16598695 33.70437609 122.58437246 33.71118071 121.00276184 33.71875 C116.69908156 33.73645706 112.39548074 33.74110733 108.09176755 33.74238157 C104.50312738 33.7442776 100.91450585 33.75163165 97.32587284 33.75872576 C88.86178551 33.77502497 80.39774074 33.77989329 71.93363953 33.7784729 C63.19259753 33.77727084 54.4518022 33.79838188 45.71082264 33.82996023 C38.21439497 33.8560807 30.71804806 33.86684199 23.2215752 33.86556208 C18.74061131 33.86505123 14.25986654 33.87080218 9.77894783 33.89191818 C5.56573134 33.91122979 1.3529446 33.91147403 -2.86028671 33.89688492 C-4.40870221 33.89478691 -5.95714411 33.89955641 -7.50551414 33.91160583 C-9.61557628 33.92696586 -11.72413934 33.9178143 -13.83416748 33.90234375 C-15.01607383 33.90343328 -16.19798018 33.90452282 -17.41570187 33.90564537 C-20.2936554 33.40786743 -20.2936554 33.40786743 -22.22300816 31.54029274 C-23.2936554 29.40786743 -23.2936554 29.40786743 -22.88349915 26.79458618 C-20.62482355 21.9831077 -17.78822799 17.64571415 -14.8561554 13.22036743 C-13.97733704 11.8678186 -13.97733704 11.8678186 -13.08076477 10.48794556 C-6.22778481 0.0412349 -6.22778481 0.0412349 0 0 Z " fill="#122774" transform="translate(188.2936553955078,258.5921325683594)"/>
<path d="M0 0 C4.62 0 9.24 0 14 0 C14 3.96 14 7.92 14 12 C17.3 12 20.6 12 24 12 C24 8.7 24 5.4 24 2 C30.6 2 37.2 2 44 2 C44 8.6 44 15.2 44 22 C41.69 22 39.38 22 37 22 C37.33 21.34 37.66 20.68 38 20 C39.98 19.505 39.98 19.505 42 19 C42.33 13.72 42.66 8.44 43 3 C37.06 3 31.12 3 25 3 C25 6.3 25 9.6 25 13 C16.08040123 13.97907437 7.2786009 14.11936291 -1.6875 14.0625 C-3.08268067 14.05747028 -4.47786311 14.05291 -5.87304688 14.04882812 C-9.24874437 14.03714751 -12.62434826 14.02076833 -16 14 C-16 16.31 -16 18.62 -16 21 C-17.5 19.6875 -17.5 19.6875 -19 18 C-19 17.01 -19 16.02 -19 15 C-31.1351459 14.93043396 -43.27024422 14.87715506 -55.40554905 14.84456348 C-61.04070145 14.82891974 -66.67571723 14.8077048 -72.31079102 14.77368164 C-77.75079119 14.7410425 -83.1906601 14.72313727 -88.63075066 14.71536827 C-90.70434574 14.70983297 -92.77793378 14.69902387 -94.85147285 14.68280983 C-97.75994415 14.66097526 -100.66787571 14.65803563 -103.57641602 14.65942383 C-104.43021851 14.648638 -105.284021 14.63785217 -106.16369629 14.6267395 C-111.49311272 14.65419361 -115.39923245 15.19089785 -120 18 C-122.41968414 22.53894693 -122.2856756 27.29973758 -122.25878906 32.34106445 C-122.2622937 33.15653748 -122.26579834 33.9720105 -122.26940918 34.81219482 C-122.27817884 37.49597808 -122.27239256 40.17949551 -122.265625 42.86328125 C-122.26697341 44.73886668 -122.26891541 46.61445177 -122.27142334 48.49003601 C-122.27436848 52.41811455 -122.270098 56.34610199 -122.26074219 60.27416992 C-122.24937169 65.29079385 -122.25589577 70.30720318 -122.26788712 75.32381916 C-122.27514236 79.19731742 -122.2728006 83.07076552 -122.26763153 86.94426537 C-122.26630393 88.79289971 -122.26791135 90.64153872 -122.27259064 92.49016762 C-122.27771368 95.08381688 -122.26986422 97.67712765 -122.25878906 100.27075195 C-122.26283752 101.02378098 -122.26688599 101.77681 -122.27105713 102.55265808 C-122.23400312 107.27605218 -121.56311803 111.49998807 -120.34488392 116.06715107 C-119.81284551 119.04887861 -120.75405066 120.62377206 -122.40234375 123.0859375 C-122.96018555 123.94896484 -123.51802734 124.81199219 -124.09277344 125.70117188 C-124.7015332 126.58353516 -125.31029297 127.46589844 -125.9375 128.375 C-126.53981445 129.29603516 -127.14212891 130.21707031 -127.76269531 131.16601562 C-129.48515776 133.79381548 -131.23838978 136.39835051 -133 139 C-134.43067978 141.15815321 -135.84318251 143.32609676 -137.25 145.5 C-137.77078125 146.2734375 -138.2915625 147.046875 -138.828125 147.84375 C-140.17058937 150.31388443 -140.83558213 152.18662752 -141 155 C-140.02318253 156.78286044 -140.02318253 156.78286044 -138 158 C-135.43901959 158.29247623 -133.1214389 158.40057065 -130.56018066 158.3742218 C-129.7961098 158.37819621 -129.03203893 158.38217061 -128.2448144 158.38626546 C-125.67669393 158.39591349 -123.10912091 158.38405546 -120.54101562 158.37231445 C-118.70309747 158.3747416 -116.86518063 158.37846016 -115.02726746 158.38337708 C-110.02939898 158.39280033 -105.03172585 158.38334859 -100.0338726 158.37004495 C-94.81021969 158.35874844 -89.58657665 158.36283656 -84.36291504 158.36479187 C-75.58972981 158.36567542 -66.81662176 158.35458178 -58.04345703 158.33618164 C-47.89202892 158.3150131 -37.74071392 158.31150378 -27.58926821 158.3177436 C-17.83478072 158.32343306 -8.08033317 158.31779653 1.67414856 158.30657005 C5.83039588 158.30191853 9.98661882 158.30105261 14.14286804 158.3031559 C19.03478838 158.30503589 23.92659317 158.29695719 28.81848717 158.2810955 C30.61683868 158.27684338 32.4152019 158.27600831 34.21355629 158.27878571 C36.66255901 158.28199486 39.11121374 158.27295789 41.56018066 158.26069641 C42.27700311 158.26447573 42.99382556 158.26825506 43.7323699 158.27214891 C47.38414571 158.23965878 48.87146627 158.08568916 52 156 C52.71965866 151.65935613 51.24918536 149.21157407 48.9296875 145.61328125 C47.95515625 144.0809082 47.95515625 144.0809082 46.9609375 142.51757812 C46.27257812 141.45990234 45.58421875 140.40222656 44.875 139.3125 C42.88266848 136.20237784 40.89269576 133.09085022 38.90917969 129.97509766 C37.66016053 128.02873608 36.39063639 126.09534385 35.09863281 124.17724609 C34.24930176 122.87327881 34.24930176 122.87327881 33.3828125 121.54296875 C32.87379395 120.78395264 32.36477539 120.02493652 31.84033203 119.24291992 C31 117 31 117 31.82519531 114.43798828 C32.21288086 113.63345215 32.60056641 112.82891602 33 112 C33.28335716 109.57007865 33.48803459 107.1300498 33.625 104.6875 C33.69976562 103.43324219 33.77453125 102.17898437 33.8515625 100.88671875 C33.90054688 99.93410156 33.94953125 98.98148437 34 98 C34.33 98 34.66 98 35 98 C35 90.41 35 82.82 35 75 C34.67 75 34.34 75 34 75 C34 66.09 34 57.18 34 48 C32.02 48 30.04 48 28 48 C28 56.58 28 65.16 28 74 C27.34 73.67 26.68 73.34 26 73 C25.97113249 68.85418113 25.95324673 64.70838784 25.9375 60.5625 C25.92912109 59.37849609 25.92074219 58.19449219 25.91210938 56.97460938 C25.90888672 55.84990234 25.90566406 54.72519531 25.90234375 53.56640625 C25.89710693 52.52427979 25.89187012 51.48215332 25.88647461 50.40844727 C26 48 26 48 27 47 C29.67058851 46.85884839 32.32432238 46.95752893 35 47 C34.97679687 46.22914063 34.95359375 45.45828125 34.9296875 44.6640625 C34.91164063 43.66117188 34.89359375 42.65828125 34.875 41.625 C34.85179687 40.62726563 34.82859375 39.62953125 34.8046875 38.6015625 C35 36 35 36 37 34 C37.04638475 43.93590883 37.08190043 53.8717918 37.10362434 63.80778694 C37.11405186 68.42170162 37.12819226 73.03554209 37.15087891 77.64941406 C37.17264403 82.10385745 37.18457639 86.55822955 37.18975449 91.01272202 C37.19344365 92.71033729 37.20064767 94.40794875 37.21146011 96.1055336 C37.22602384 98.48727026 37.22797591 100.86871411 37.22705078 103.25048828 C37.23424133 103.94892349 37.24143188 104.6473587 37.24884033 105.36695862 C37.23090876 109.64639681 36.3742083 112.98013096 35 117 C36.00165075 119.86560644 36.00165075 119.86560644 37.91015625 122.5546875 C38.57080078 123.58207031 39.23144531 124.60945313 39.91210938 125.66796875 C40.62173828 126.72628906 41.33136719 127.78460938 42.0625 128.875 C42.74505859 129.92558594 43.42761719 130.97617187 44.13085938 132.05859375 C46.07436116 135.04773317 48.03637347 138.02406105 50 141 C50.98343648 142.50464409 51.96102655 144.01314525 52.9296875 145.52734375 C53.3097998 146.11765381 53.68991211 146.70796387 54.08154297 147.31616211 C55.68635013 150.25830858 56.06259297 152.68257255 56 156 C54.10037269 160.08419872 51.39290713 161.48272507 47.37535095 163.1111908 C39.75760414 165.76853417 32.19778235 165.56917033 24.24438477 165.53344727 C22.5775171 165.54051769 20.91065585 165.5492674 19.24380493 165.55955505 C14.74575366 165.58193276 10.24805619 165.57913672 5.74997067 165.57023358 C1.98276826 165.56509988 -1.78436905 165.57243549 -5.55156475 165.57970566 C-14.44434725 165.59666772 -23.33695799 165.5931761 -32.22973633 165.57641602 C-41.37814314 165.5594962 -50.52607273 165.57533568 -59.67442745 165.6076389 C-67.55421281 165.63439993 -75.43385021 165.64159332 -83.31367642 165.63312382 C-88.00887688 165.62821383 -92.70379038 165.63030521 -97.39895439 165.65091133 C-101.81597172 165.66937136 -106.23230671 165.66318494 -110.64928818 165.63871193 C-112.2616486 165.63373667 -113.87406196 165.63710751 -115.48637962 165.64986038 C-125.02146334 165.71926072 -133.60995318 165.14146005 -142 160 C-143.92460891 157.11308663 -144.58768083 155.58973853 -144.48144531 152.15869141 C-143.3685746 147.16883196 -140.11038805 142.92817705 -137.375 138.6875 C-136.13260177 136.71237212 -134.89041255 134.73711275 -133.6484375 132.76171875 C-131.83574787 129.89138592 -130.01755066 127.02695179 -128.16503906 124.18212891 C-127.6078418 123.30347168 -127.05064453 122.42481445 -126.4765625 121.51953125 C-125.97463379 120.74327393 -125.47270508 119.9670166 -124.95556641 119.16723633 C-123.78352744 116.50903757 -124.26329409 115.73584086 -125 113 C-125.11016774 110.02721867 -125.16754986 107.07721839 -125.17700195 104.10400391 C-125.18357315 103.20597549 -125.19014435 102.30794708 -125.19691467 101.38270569 C-125.21660911 98.41399041 -125.22830016 95.44532557 -125.23828125 92.4765625 C-125.24235678 91.4616914 -125.2464323 90.4468203 -125.25063133 89.40119553 C-125.27147313 84.0321142 -125.28578444 78.66305831 -125.29516602 73.29394531 C-125.30624153 67.74999044 -125.34066016 62.2064357 -125.38033772 56.66262245 C-125.40647886 52.39721937 -125.41485551 48.13191215 -125.41844749 43.866436 C-125.42331794 41.82270981 -125.43494493 39.77898802 -125.45348549 37.73534012 C-125.47782904 34.87483149 -125.47692088 32.01536562 -125.4699707 29.15478516 C-125.48278076 28.31302231 -125.49559082 27.47125946 -125.50878906 26.60398865 C-125.46176857 21.28842291 -124.61842882 18.15973489 -121 14 C-117.95304026 12.09552856 -115.64167322 11.7518419 -112.07720947 11.75949097 C-110.59227745 11.75536697 -110.59227745 11.75536697 -109.0773468 11.75115967 C-107.9976915 11.75835022 -106.91803619 11.76554077 -105.80566406 11.77294922 C-104.6639122 11.77265717 -103.52216034 11.77236511 -102.34580994 11.77206421 C-98.56900453 11.77345841 -94.79239598 11.78902413 -91.015625 11.8046875 C-88.39817411 11.8084173 -85.78072183 11.81126443 -83.16326904 11.81326294 C-76.9761988 11.81947694 -70.78919931 11.83588666 -64.60216022 11.85596192 C-57.55747144 11.87832342 -50.51277927 11.88931498 -43.46806383 11.89935279 C-28.97867184 11.92025297 -14.48933928 11.95583068 0 12 C0 8.04 0 4.08 0 0 Z " fill="#182966" transform="translate(293,141)"/>
<path d="M0 0 C59.4 0 118.8 0 180 0 C180 0.33 180 0.66 180 1 C129.015 1.495 129.015 1.495 77 2 C76.67 2.66 76.34 3.32 76 4 C67.03806296 4.02314078 58.07613616 4.04092397 49.1141758 4.05181217 C44.95305961 4.05703719 40.79196382 4.06412795 36.63085938 4.07543945 C32.61734185 4.08628184 28.60384399 4.09227972 24.59031296 4.09487724 C23.05686509 4.09672905 21.52341832 4.100345 19.98997879 4.10573006 C17.84697368 4.1129584 15.70405044 4.11399018 13.56103516 4.11352539 C11.72903061 4.11685631 11.72903061 4.11685631 9.86001587 4.12025452 C7 4 7 4 5 3 C5 2.34 5 1.68 5 1 C3.35 1 1.7 1 0 1 C0 0.67 0 0.34 0 0 Z " fill="#203581" transform="translate(157,301)"/>
<path d="M0 0 C8.25 0 16.5 0 25 0 C24.67 0.99 24.34 1.98 24 3 C25.37249963 5.67676547 25.37249963 5.67676547 27 8 C28.32 6.02 29.64 4.04 31 2 C30.34 2 29.68 2 29 2 C29 1.34 29 0.68 29 0 C31.64 0 34.28 0 37 0 C37 0.66 37 1.32 37 2 C36.2575 2.5775 35.515 3.155 34.75 3.75 C28.20101053 9.10826411 27.08518473 14.9753445 26 23 C26.66 23.33 27.32 23.66 28 24 C24.7 24 21.4 24 18 24 C18.66 23.34 19.32 22.68 20 22 C22.56923781 15.06305791 20.503552 8.57182399 18 2 C17.01 2 16.02 2 15 2 C15 3.65 15 5.3 15 7 C14.4225 6.34 13.845 5.68 13.25 5 C11.00346023 2.55709077 11.00346023 2.55709077 7 3 C6.34 5.64 5.68 8.28 5 11 C7.47266765 10.65555119 7.47266765 10.65555119 10 10 C10.33 9.34 10.66 8.68 11 8 C11.66 8 12.32 8 13 8 C12.4140625 14.15234375 12.4140625 14.15234375 12 16 C11.34 16.33 10.68 16.66 10 17 C10 16.01 10 15.02 10 14 C8.35 14 6.7 14 5 14 C4.79375 15.27875 4.5875 16.5575 4.375 17.875 C4.25898438 18.59429687 4.14296875 19.31359375 4.0234375 20.0546875 C4.01570313 20.69664062 4.00796875 21.33859375 4 22 C4.66 22.66 5.32 23.32 6 24 C2.7 24 -0.6 24 -4 24 C-3.34 23.67 -2.68 23.34 -2 23 C-1.45580177 21.21757039 -1.45580177 21.21757039 -1.18359375 19.0703125 C-1.05919922 18.27496094 -0.93480469 17.47960937 -0.80664062 16.66015625 C-0.68482422 15.82355469 -0.56300781 14.98695313 -0.4375 14.125 C-0.18828411 12.48145314 0.06293838 10.83820899 0.31640625 9.1953125 C0.42412354 8.46328613 0.53184082 7.73125977 0.64282227 6.97705078 C1 5 1 5 2 2 C1.34 2 0.68 2 0 2 C0 1.34 0 0.68 0 0 Z " fill="#16286B" transform="translate(270,315)"/>
<path d="M0 0 C2.10388569 -0.05402274 4.20816714 -0.09280256 6.3125 -0.125 C8.07013672 -0.15980469 8.07013672 -0.15980469 9.86328125 -0.1953125 C13 0 13 0 16 2 C16.43132515 6.05445642 16.30019361 7.54970958 14 11 C14.66 11.66 15.32 12.32 16 13 C16.4375 16.375 16.4375 16.375 16 20 C13.24203821 23.27507963 11.31840633 23.93323738 7.125 24.8125 C3.2707538 25.13490843 -0.20805798 24.71098913 -4 24 C-3.53980469 23.53078125 -3.07960937 23.0615625 -2.60546875 22.578125 C-0.27765266 18.84002618 0.07103277 15.06190195 0.6875 10.75 C0.81705078 9.90953125 0.94660156 9.0690625 1.08007812 8.203125 C1.39704442 6.13697433 1.69991516 4.06866994 2 2 C1.34 2 0.68 2 0 2 C0 1.34 0 0.68 0 0 Z M8 2 C6.74335022 4.90600261 6 6.79604584 6 10 C7.94074861 9.72382467 7.94074861 9.72382467 10 9 C12.30671915 6.28450846 12.30671915 6.28450846 11.625 3.8125 C11.41875 3.214375 11.2125 2.61625 11 2 C10.01 2 9.02 2 8 2 Z M6 12 C4.57741188 15.82320557 3.75957724 18.91281305 4 23 C7.93075644 22.42547254 7.93075644 22.42547254 11 20 C11.16681109 16.91652174 11.16681109 16.91652174 11 14 C8.525 13.01 8.525 13.01 6 12 Z " fill="#172868" transform="translate(236,315)"/>
<path d="M0 0 C2.9375 1.5625 2.9375 1.5625 5 4 C6.46857587 9.18896806 6.07158788 13.04620289 4 18 C1.36036843 21.356103 -0.91648445 23.63882815 -5 25 C-9.19478364 25.46608707 -11.3107192 25.42530092 -14.9375 23.1875 C-17.95744463 18.52031285 -17.85805972 14.41054326 -17 9 C-13.44854062 1.63401018 -8.0143528 -1.42477383 0 0 Z M-10.3125 4.3125 C-12.91581835 8.74660726 -12.83141429 14.04147515 -12 19 C-10.57825251 21.29757295 -10.57825251 21.29757295 -9 23 C-5.33535945 22.5047783 -3.29167646 21.9791794 -1 19 C-0.03693102 16.11079306 0.1955936 14.07752119 0.25 11.0625 C0.27578125 10.20785156 0.3015625 9.35320312 0.328125 8.47265625 C-0.06732739 5.49264006 -0.94487245 4.16303401 -3 2 C-6.69105321 1.0535761 -7.61513603 1.61513603 -10.3125 4.3125 Z " fill="#182766" transform="translate(227,315)"/>
<path d="M0 0 C2.97 0 5.94 0 9 0 C9 0.66 9 1.32 9 2 C8.34 2 7.68 2 7 2 C6.87882813 2.90621094 6.75765625 3.81242187 6.6328125 4.74609375 C3.7699594 25.55683356 3.7699594 25.55683356 0 30 C-3.1875 31.3125 -3.1875 31.3125 -6 32 C-5.71125 31.443125 -5.4225 30.88625 -5.125 30.3125 C-3.14564271 26.24382113 -1.74952163 22.37240085 -0.9296875 17.91796875 C-0.75566406 16.98662109 -0.58164063 16.05527344 -0.40234375 15.09570312 C-0.22832031 14.13599609 -0.05429688 13.17628906 0.125 12.1875 C0.30675781 11.20845703 0.48851562 10.22941406 0.67578125 9.22070312 C1.12178851 6.81461131 1.56303717 4.40774786 2 2 C1.34 2 0.68 2 0 2 C0 1.34 0 0.68 0 0 Z " fill="#142566" transform="translate(200,315)"/>
<path d="M0 0 C0.9075 0.00257813 1.815 0.00515625 2.75 0.0078125 C4.11125 0.00394531 4.11125 0.00394531 5.5 0 C7.75 0.1328125 7.75 0.1328125 8.75 1.1328125 C8.89355117 5.13501903 8.79216403 9.12722933 8.75 13.1328125 C4.79 13.1328125 0.83 13.1328125 -3.25 13.1328125 C-3.34765625 3.85546875 -3.34765625 3.85546875 -3.25 1.1328125 C-2.25 0.1328125 -2.25 0.1328125 0 0 Z " fill="#122774" transform="translate(297.25,141.8671875)"/>
<path d="M0 0 C13.86 0 27.72 0 42 0 C42 0.33 42 0.66 42 1 C40.89487061 1.02505615 39.78974121 1.0501123 38.65112305 1.07592773 C34.55285956 1.17006509 30.45476306 1.27027041 26.35668945 1.37231445 C24.58264063 1.41563934 22.80855077 1.45731619 21.03442383 1.49731445 C18.48506295 1.5550762 15.9359082 1.61875362 13.38671875 1.68359375 C12.59287277 1.70030624 11.79902679 1.71701874 10.98112488 1.73423767 C7.75316923 1.82117718 5.08248901 1.97250366 2 3 C1.67 30.72 1.34 58.44 1 87 C2.65 87 4.3 87 6 87 C6 87.33 6 87.66 6 88 C4.02 88 2.04 88 0 88 C0 58.96 0 29.92 0 0 Z " fill="#172863" transform="translate(176,162)"/>
<path d="M0 0 C2.97 0 5.94 0 9 0 C9 0.66 9 1.32 9 2 C8.01 2.495 8.01 2.495 7 3 C6.34395848 5.02503889 6.34395848 5.02503889 5.9296875 7.47265625 C5.75566406 8.37177734 5.58164062 9.27089844 5.40234375 10.19726562 C5.22832031 11.14279297 5.05429687 12.08832031 4.875 13.0625 C4.69324219 14.01189453 4.51148438 14.96128906 4.32421875 15.93945312 C3.87506263 18.2916128 3.43403807 20.64501178 3 23 C3.66 23.33 4.32 23.66 5 24 C2.03 24 -0.94 24 -4 24 C-3.34 23.67 -2.68 23.34 -2 23 C-1.33953305 19.93313865 -1.33953305 19.93313865 -0.9375 16.3125 C-0.00967624 9.0509372 -0.00967624 9.0509372 0.62109375 5.73046875 C1.21773119 2.91381832 1.21773119 2.91381832 0 0 Z " fill="#182864" transform="translate(258,315)"/>
<path d="M0 0 C1.59908203 0.16242188 1.59908203 0.16242188 3.23046875 0.328125 C5.8125 0.75 5.8125 0.75 6.8125 1.75 C6.88521741 4.10313555 6.89620868 6.45833668 6.875 8.8125 C6.86597656 10.10285156 6.85695313 11.39320313 6.84765625 12.72265625 C6.83605469 13.72167969 6.82445312 14.72070312 6.8125 15.75 C6.4825 15.75 6.1525 15.75 5.8125 15.75 C5.8125 11.46 5.8125 7.17 5.8125 2.75 C1.1925 2.75 -3.4275 2.75 -8.1875 2.75 C-8.1875 7.04 -8.1875 11.33 -8.1875 15.75 C-8.8475 15.75 -9.5075 15.75 -10.1875 15.75 C-10.2955023 13.64695523 -10.37308987 11.54233091 -10.4375 9.4375 C-10.50710938 7.67986328 -10.50710938 7.67986328 -10.578125 5.88671875 C-10.1875 2.75 -10.1875 2.75 -8.55859375 0.81640625 C-5.45661083 -0.57871951 -3.36464678 -0.37703715 0 0 Z " fill="#192860" transform="translate(305.1875,196.25)"/>
<path d="M0 0 C2.0625 0.4375 2.0625 0.4375 4 1 C3.01 1.33 2.02 1.66 1 2 C1 5.63 1 9.26 1 13 C-12.86 13 -26.72 13 -41 13 C-41 12.67 -41 12.34 -41 12 C-27.8 12 -14.6 12 -1 12 C-1 8.37 -1 4.74 -1 1 C-0.67 0.67 -0.34 0.34 0 0 Z " fill="#182765" transform="translate(320,237)"/>
<path d="M0 0 C8.25 0 16.5 0 25 0 C25 0.66 25 1.32 25 2 C24.21625 1.95875 23.4325 1.9175 22.625 1.875 C19.83883881 1.71271266 19.83883881 1.71271266 18 4 C18 3.34 18 2.68 18 2 C17.01 2 16.02 2 15 2 C15 3.65 15 5.3 15 7 C14.4225 6.34 13.845 5.68 13.25 5 C11.00346023 2.55709077 11.00346023 2.55709077 7 3 C6.67 4.65 6.34 6.3 6 8 C5.67 8 5.34 8 5 8 C5 5.69 5 3.38 5 1 C3.35 1.33 1.7 1.66 0 2 C0 1.34 0 0.68 0 0 Z " fill="#1C2A5A" transform="translate(270,315)"/>
<path d="M0 0 C2.86724686 0.57344937 3.8614515 0.8614515 6 3 C6.76679965 6.83399823 7.24674659 9.25976024 6 13 C4.0625 12.5 4.0625 12.5 2 11 C1.3125 7.0625 1.3125 7.0625 1.17578125 4.97265625 C1.05760091 2.78817404 1.05760091 2.78817404 0 0 Z " fill="#14266C" transform="translate(226,316)"/>
<path d="M0 0 C1.4540625 0.0309375 1.4540625 0.0309375 2.9375 0.0625 C2.9375 2.3725 2.9375 4.6825 2.9375 7.0625 C0.6275 7.0625 -1.6825 7.0625 -4.0625 7.0625 C-4.10504356 5.06295254 -4.10330783 3.06208364 -4.0625 1.0625 C-3.0625 0.0625 -3.0625 0.0625 0 0 Z " fill="#1C275A" transform="translate(274.0625,137.9375)"/>
<path d="M0 0 C1.99954746 -0.04254356 4.00041636 -0.04080783 6 0 C7 1 7 1 7.0625 4.0625 C7.041875 5.031875 7.02125 6.00125 7 7 C4.69 7 2.38 7 0 7 C0 4.69 0 2.38 0 0 Z " fill="#182557" transform="translate(314,120)"/>
<path d="M0 0 C2.64 0 5.28 0 8 0 C8 0.66 8 1.32 8 2 C7.2575 2.5775 6.515 3.155 5.75 3.75 C2.75434812 6.2009879 1.01380994 8.71823565 -1 12 C-1.75 10.375 -1.75 10.375 -2 8 C-0.0625 4.75 -0.0625 4.75 2 2 C1.34 2 0.68 2 0 2 C0 1.34 0 0.68 0 0 Z " fill="#1C2B5A" transform="translate(299,315)"/>
<path d="M0 0 C2 1 2 1 2.75 3 C3.90165132 5.36247285 3.90165132 5.36247285 7.125 5.75 C8.07375 5.8325 9.0225 5.915 10 6 C10 6.33 10 6.66 10 7 C8.02 7 6.04 7 4 7 C4 9.97 4 12.94 4 16 C3.34 16 2.68 16 2 16 C2 12.7 2 9.4 2 6 C1.34 6 0.68 6 0 6 C0 4.02 0 2.04 0 0 Z " fill="#172761" transform="translate(317,156)"/>
<path d="M0 0 C0.33 0 0.66 0 1 0 C2.125 7.75 2.125 7.75 1 10 C0.7724985 11.87056791 0.59037189 13.74685958 0.4375 15.625 C0.35371094 16.62789062 0.26992188 17.63078125 0.18359375 18.6640625 C0.12300781 19.43492187 0.06242187 20.20578125 0 21 C-0.33 21 -0.66 21 -1 21 C-1.33 16.05 -1.66 11.1 -2 6 C-3.98 6 -5.96 6 -8 6 C-8 5.67 -8 5.34 -8 5 C-5.36 5 -2.72 5 0 5 C0 3.35 0 1.7 0 0 Z " fill="#23357D" transform="translate(328,167)"/>
<path d="M0 0 C0.33 0 0.66 0 1 0 C1 2.64 1 5.28 1 8 C3.97 8 6.94 8 10 8 C10 8.66 10 9.32 10 10 C7.36 10 4.72 10 2 10 C2 10.66 2 11.32 2 12 C0.68 11.67 -0.64 11.34 -2 11 C-1.67 10.34 -1.34 9.68 -1 9 C-0.77532169 7.46331135 -0.59203195 5.92031946 -0.4375 4.375 C-0.35371094 3.55773437 -0.26992188 2.74046875 -0.18359375 1.8984375 C-0.12300781 1.27195313 -0.06242187 0.64546875 0 0 Z " fill="#192A67" transform="translate(276,210)"/>
<path d="M0 0 C0.33 0.66 0.66 1.32 1 2 C0.328125 3.76953125 0.328125 3.76953125 -0.75 5.8125 C-1.12125 6.52019531 -1.4925 7.22789062 -1.875 7.95703125 C-3.18938832 10.34392393 -4.55578989 12.68926383 -6 15 C-6.99 14.67 -7.98 14.34 -9 14 C-6.03 9.38 -3.06 4.76 0 0 Z " fill="#192764" transform="translate(180,262)"/>
<path d="M0 0 C2.10388569 -0.05402274 4.20816714 -0.09280256 6.3125 -0.125 C8.07013672 -0.15980469 8.07013672 -0.15980469 9.86328125 -0.1953125 C13 0 13 0 16 2 C16 2.66 16 3.32 16 4 C15.030625 3.67 14.06125 3.34 13.0625 3 C8.70233163 1.73126248 4.50445434 1.81614472 0 2 C0 1.34 0 0.68 0 0 Z " fill="#1C2659" transform="translate(236,315)"/>
<path d="M0 0 C0.99 0 1.98 0 3 0 C2.67 4.62 2.34 9.24 2 14 C-0.28062828 10.57905758 -0.21925007 9.31812778 -0.125 5.3125 C-0.10695312 4.31863281 -0.08890625 3.32476562 -0.0703125 2.30078125 C-0.04710937 1.54152344 -0.02390625 0.78226562 0 0 Z " fill="#172874" transform="translate(201,323)"/>
<path d="M0 0 C2.64 0 5.28 0 8 0 C8.33 2.64 8.66 5.28 9 8 C8.46375 7.195625 7.9275 6.39125 7.375 5.5625 C4.56894631 2.53491576 3.03174806 2.27489191 -1 2 C-0.67 1.34 -0.34 0.68 0 0 Z " fill="#243165" transform="translate(219,315)"/>
<path d="M0 0 C1.65 0 3.3 0 5 0 C4.67 1.65 4.34 3.3 4 5 C2.68 5 1.36 5 0 5 C0 3.35 0 1.7 0 0 Z " fill="#14276F" transform="translate(315,121)"/>
<path d="M0 0 C2 1.0625 2 1.0625 4 3 C4.25 6.6875 4.25 6.6875 4 10 C3.67 10 3.34 10 3 10 C3 8.35 3 6.7 3 5 C1.68 5.33 0.36 5.66 -1 6 C-0.67 4.02 -0.34 2.04 0 0 Z " fill="#142560" transform="translate(248,325)"/>
<path d="M0 0 C-0.5859375 6.15234375 -0.5859375 6.15234375 -1 8 C-1.99 8.495 -1.99 8.495 -3 9 C-3 8.01 -3 7.02 -3 6 C-3.66 5.67 -4.32 5.34 -5 5 C-5 3 -5 3 -3.625 1.375 C-2 0 -2 0 0 0 Z " fill="#182554" transform="translate(283,323)"/>
<path d="M0 0 C0.99 0 1.98 0 3 0 C3.33 2.64 3.66 5.28 4 8 C3.01 8 2.02 8 1 8 C0.67 5.36 0.34 2.72 0 0 Z " fill="#182B72" transform="translate(272,316)"/>
<path d="M0 0 C0.99 0.33 1.98 0.66 3 1 C3 3.97 3 6.94 3 10 C2.01 9.67 1.02 9.34 0 9 C0 6.03 0 3.06 0 0 Z " fill="#182661" transform="translate(327,163)"/>
<path d="M0 0 C0 0.66 0 1.32 0 2 C-6.625 3.25 -6.625 3.25 -10 1 C-6.52674819 -0.1577506 -3.63932552 -0.06866652 0 0 Z " fill="#212F68" transform="translate(246,337)"/>
<path d="M0 0 C0.99 0.33 1.98 0.66 3 1 C0.525 4.465 0.525 4.465 -2 8 C-2.33 6.68 -2.66 5.36 -3 4 C-1.5625 1.75 -1.5625 1.75 0 0 Z " fill="#202D65" transform="translate(300,319)"/>
<path d="M0 0 C0.99 0 1.98 0 3 0 C3 1.65 3 3.3 3 5 C1.68 5 0.36 5 -1 5 C-0.67 3.35 -0.34 1.7 0 0 Z " fill="#152672" transform="translate(272,139)"/>
<path d="M0 0 C0.33 0.66 0.66 1.32 1 2 C1.99 2.33 2.98 2.66 4 3 C-0.75 6 -0.75 6 -3 6 C-2 4 -1 2 0 0 Z " fill="#172355" transform="translate(197,341)"/>
<path d="M0 0 C0.99 0.33 1.98 0.66 3 1 C2.67 2.32 2.34 3.64 2 5 C-0.31 4.34 -2.62 3.68 -5 3 C-5 2.67 -5 2.34 -5 2 C-3.35 2 -1.7 2 0 2 C0 1.34 0 0.68 0 0 Z " fill="#1F2F72" transform="translate(246,324)"/>
<path d="M0 0 C2.97 0 5.94 0 9 0 C9 0.66 9 1.32 9 2 C8.34 2 7.68 2 7 2 C6.67 2.66 6.34 3.32 6 4 C5.67 3.34 5.34 2.68 5 2 C3.35 2 1.7 2 0 2 C0 1.34 0 0.68 0 0 Z " fill="#18204D" transform="translate(200,315)"/>
</svg>
